<?xml version="1.0" standalone="no"?>
<!DOCTYPE svg PUBLIC "-//W3C//DTD SVG 20010904//EN"
 "http://www.w3.org/TR/2001/REC-SVG-20010904/DTD/svg10.dtd">
<svg version="1.0" xmlns="http://www.w3.org/2000/svg"
 width="776.000000pt" height="776.000000pt" viewBox="0 0 776.000000 776.000000"
 preserveAspectRatio="xMidYMid meet">
<metadata>
Created by potrace 1.11, written by Peter Selinger 2001-2013
</metadata>
<g transform="translate(0.000000,776.000000) scale(0.100000,-0.100000)"
fill="#000000" stroke="none">
<path d="M3218 7434 c-2 -1 -73 -5 -158 -8 -85 -4 -180 -8 -210 -11 -30 -2
-98 -6 -150 -10 -98 -6 -180 -13 -240 -20 -19 -3 -62 -7 -95 -11 -33 -3 -71
-8 -85 -9 -43 -5 -179 -24 -215 -31 -11 -2 -40 -7 -65 -10 -53 -6 -59 -7 -170
-29 -108 -22 -115 -23 -115 -25 0 -1 -9 -3 -20 -5 -48 -6 -155 -33 -212 -51
-23 -7 -52 -15 -65 -18 -83 -15 -398 -133 -528 -196 -109 -54 -314 -181 -345
-214 -5 -6 -27 -24 -48 -39 -56 -42 -179 -173 -237 -252 -131 -178 -217 -394
-247 -620 -8 -58 -11 -368 -4 -380 3 -5 6 -14 7 -20 23 -148 90 -311 169 -409
133 -165 297 -265 515 -312 100 -22 291 -19 378 5 17 5 32 8 32 6 0 -2 32 7
72 21 257 87 436 304 454 549 1 17 3 32 4 35 4 9 2 53 -4 117 -11 107 -54 202
-121 269 -40 39 -60 51 -137 82 -58 24 -172 0 -207 -42 -8 -9 -17 -16 -22 -16
-8 0 -32 -17 -63 -45 -23 -21 -122 -78 -156 -90 -3 -1 -14 -6 -25 -11 -11 -5
-58 -9 -105 -8 -96 0 -142 18 -201 76 -29 30 -78 119 -86 158 -16 76 -20 180
-10 256 7 55 61 206 80 227 7 6 26 32 42 56 42 63 172 190 241 237 33 21 65
44 71 51 23 21 256 132 333 158 127 43 219 68 290 80 19 3 47 8 61 11 83 16
291 19 366 5 105 -21 170 -74 192 -157 7 -26 10 -815 11 -2459 1 -1331 3
-2438 4 -2460 8 -103 49 -268 89 -355 63 -137 200 -271 365 -354 156 -80 425
-157 627 -180 28 -4 68 -9 90 -12 66 -10 95 -12 205 -19 58 -4 130 -8 160 -11
143 -10 656 -3 790 11 30 3 78 8 105 10 28 2 61 6 75 9 14 2 52 7 85 11 51 6
109 17 275 51 14 2 33 7 42 10 16 5 40 10 87 20 13 3 32 9 43 15 10 5 18 8 18
5 0 -6 234 77 304 108 63 28 76 25 76 -20 0 -35 59 -201 97 -271 150 -282 398
-477 703 -552 91 -22 108 -24 245 -24 154 -1 190 4 315 40 397 114 695 460
760 878 9 59 6 316 -3 332 -3 4 -8 24 -11 43 -12 79 -68 224 -125 325 -87 154
-243 304 -413 399 -57 32 -191 86 -227 92 -14 3 -39 9 -56 14 -46 13 -132 23
-216 24 -46 1 -75 5 -73 11 3 10 11 66 22 150 9 67 8 457 -1 520 -9 66 -13 87
-33 195 -5 25 -26 104 -32 120 -3 8 -6 17 -7 20 -6 26 -42 124 -57 160 -97
223 -230 404 -393 535 -28 22 -52 43 -55 46 -9 12 -170 118 -170 113 0 -3 -12
3 -27 14 -66 46 -362 159 -438 167 -5 1 -26 5 -45 10 -19 4 -46 9 -60 11 -14
1 -34 5 -45 8 -11 2 -30 5 -43 5 -20 1 -23 6 -20 33 3 29 11 35 123 92 148 75
186 100 310 199 60 48 194 187 200 208 4 11 10 19 14 19 12 0 55 66 119 183
36 66 102 245 118 322 2 11 6 31 9 45 15 72 20 139 20 275 0 202 -15 303 -70
472 -28 85 -114 263 -127 263 -4 0 -8 5 -8 11 0 34 -256 309 -287 309 -7 0
-13 4 -13 9 0 11 -122 91 -213 140 -133 71 -390 166 -492 182 -5 1 -30 7 -55
15 -39 11 -68 17 -185 39 -57 11 -181 28 -280 40 -16 2 -68 7 -115 10 -47 4
-101 9 -120 12 -37 5 -948 12 -952 7z m1012 -369 c73 -19 175 -71 235 -120 59
-48 105 -94 105 -104 0 -5 3 -11 8 -13 13 -5 68 -81 93 -128 13 -25 28 -48 32
-51 5 -3 8 -9 8 -12 0 -4 9 -28 20 -54 18 -42 32 -82 68 -198 6 -16 13 -48 17
-70 4 -22 8 -49 10 -60 15 -79 19 -145 19 -330 -1 -186 -7 -295 -19 -361 -3
-12 -7 -39 -10 -60 -3 -22 -8 -50 -11 -64 -3 -14 -7 -35 -9 -46 -17 -88 -100
-291 -161 -394 -30 -50 -94 -122 -166 -186 -27 -24 -135 -94 -145 -94 -3 0
-20 -6 -37 -14 -50 -23 -146 -48 -157 -41 -5 3 -10 2 -10 -3 0 -10 5 -9 -115
-16 -49 -3 -93 -5 -97 -5 -9 -1 -36 -58 -71 -153 l-25 -68 31 -1 c18 0 46 -2
62 -5 17 -2 46 -6 65 -8 52 -6 184 -35 230 -51 22 -8 40 -12 40 -8 0 3 6 1 13
-4 6 -6 39 -20 71 -32 98 -36 218 -104 321 -181 95 -71 275 -259 275 -288 0
-6 3 -12 8 -14 27 -12 143 -236 185 -358 30 -85 63 -212 72 -268 3 -21 8 -49
10 -62 27 -133 27 -593 0 -672 -2 -7 -6 -30 -9 -50 -3 -21 -15 -73 -27 -115
-79 -297 -214 -546 -394 -729 -140 -142 -261 -220 -411 -265 -87 -27 -311 -33
-389 -12 -27 8 -57 16 -66 18 -9 2 -41 16 -70 30 -92 47 -167 144 -183 235 -3
19 -9 49 -12 65 -8 40 -9 5025 -1 5092 17 131 94 247 199 298 53 26 143 50
156 42 4 -3 13 -2 20 2 20 12 153 4 222 -14z"/>
</g>
</svg>
