<svg viewBox="206.822 209.129 96.744 88.854" xmlns="http://www.w3.org/2000/svg"><path d="M252.042 219.009v60.86c0 .82.083 1.6.25 2.34.16.733.48 1.367.96 1.9.487.54 1.15.97 1.99 1.29.84.327 1.94.49 3.3.49 1.973 0 3.783-.567 5.43-1.7 1.647-1.127 3.06-2.577 4.24-4.35 1.18-1.773 2.093-3.76 2.74-5.96.647-2.2.97-4.393.97-6.58 0-3.26-.44-6.133-1.32-8.62-.873-2.487-2.1-4.59-3.68-6.31a16.502 16.502 0 00-5.58-4c-2.153-.953-4.483-1.5-6.99-1.64l1.08-2.74c1.573.073 3.077-.14 4.51-.64 1.433-.507 2.697-1.387 3.79-2.64 1.087-1.253 1.953-2.943 2.6-5.07.647-2.133.97-4.81.97-8.03 0-2.187-.27-4.157-.81-5.91-.533-1.753-1.24-3.23-2.12-4.43-.873-1.2-1.893-2.123-3.06-2.77-1.167-.64-2.357-.96-3.57-.96-.753 0-1.48.087-2.18.26-.693.18-1.3.487-1.82.92-.52.427-.933.99-1.24 1.69-.307.7-.46 1.567-.46 2.6zm1.08-9.88c10.387 0 18.023 1.62 22.91 4.86 4.887 3.24 7.33 7.96 7.33 14.16 0 1.54-.17 2.953-.51 4.24-.34 1.287-.78 2.46-1.32 3.52a15.297 15.297 0 01-1.82 2.82c-.68.82-1.38 1.537-2.1 2.15a19.066 19.066 0 01-5.69 3.43v.81c3.327.393 6.317 1.397 8.97 3.01 1.107.68 2.197 1.53 3.27 2.55 1.08 1.02 2.04 2.253 2.88 3.7.84 1.453 1.52 3.137 2.04 5.05.52 1.92.78 4.113.78 6.58 0 3.76-.68 7.143-2.04 10.15-1.36 3.013-3.383 5.567-6.07 7.66-2.687 2.093-6.037 3.693-10.05 4.8-4.007 1.113-8.66 1.67-13.96 1.67-4.907 0-8.9-.303-11.98-.91-3.08-.613-5.48-1.5-7.2-2.66-1.713-1.167-2.883-2.573-3.51-4.22-.627-1.647-.94-3.507-.94-5.58v-58.76c0-1.973-1.363-2.96-4.09-2.96-1.967 0-3.963.297-5.99.89-2.02.587-3.843 1.39-5.47 2.41-1.633 1.027-2.97 2.247-4.01 3.66-1.033 1.413-1.55 2.943-1.55 4.59 0 1.147.15 2.06.45 2.74.307.68.657 1.19 1.05 1.53.393.34.797.553 1.21.64.413.093.71.14.89.14.893 0 1.627-.153 2.2-.46a11.74 11.74 0 001.56-.97c.46-.34.897-.66 1.31-.96.413-.307.887-.46 1.42-.46.433 0 .89.1 1.37.3.487.193.937.507 1.35.94.407.427.753.99 1.04 1.69.287.7.43 1.55.43 2.55 0 1.433-.277 2.67-.83 3.71a8.26 8.26 0 01-2.15 2.6 8.81 8.81 0 01-3 1.56c-1.133.34-2.253.51-3.36.51-1.72 0-3.27-.297-4.65-.89-1.38-.587-2.553-1.4-3.52-2.44a10.507 10.507 0 01-2.2-3.65c-.5-1.4-.75-2.887-.75-4.46 0-2.973.557-5.597 1.67-7.87 1.107-2.273 2.67-4.233 4.69-5.88 2.027-1.647 4.453-3.017 7.28-4.11 2.833-1.093 5.967-1.963 9.4-2.61 3.44-.64 7.12-1.097 11.04-1.37 3.92-.267 7.993-.4 12.22-.4z" style="white-space:pre" fill="#4c4c4c"/><path d="M303.566 284.551c0 7.418-6.014 13.432-13.432 13.432s-13.432-6.014-13.432-13.432 6.014-13.432 13.432-13.432 13.432 6.014 13.432 13.432z" fill="#d7f6da"/></svg>