<?xml version="1.0" encoding="utf-8"?>
<svg viewBox="-1 6 50 36" width="50" height="36" xmlns="http://www.w3.org/2000/svg">
  <g data-name="8-Email" id="_8-Email" transform="matrix(0.9999999999999999, 0, 0, 0.9999999999999999, -1.7763568394002505e-15, 0)">
    <path fill="#ee8daa" d="M45,7H3a3,3,0,0,0-3,3V38a3,3,0,0,0,3,3H45a3,3,0,0,0,3-3V10A3,3,0,0,0,45,7Zm-.64,2L24,24.74,3.64,9ZM2,37.59V10.26L17.41,22.17ZM3.41,39,19,23.41l4.38,3.39a1,1,0,0,0,1.22,0L29,23.41,44.59,39ZM46,37.59,30.59,22.17,46,10.26Z" style="stroke-linecap: round; stroke-linejoin: round;"/>
  </g>
</svg>
