<?xml version="1.0" encoding="utf-8"?>
<svg viewBox="206.822 209.129 96.744 88.854" xmlns="http://www.w3.org/2000/svg">
  <g>
    <path d="M 252.042 219.009 L 252.042 279.869 C 252.042 280.689 252.125 281.469 252.292 282.209 C 252.452 282.942 252.772 283.576 253.252 284.109 C 253.739 284.649 254.402 285.079 255.242 285.399 C 256.082 285.726 257.182 285.889 258.542 285.889 C 260.515 285.889 262.325 285.322 263.972 284.189 C 265.619 283.062 267.032 281.612 268.212 279.839 C 269.392 278.066 270.305 276.079 270.952 273.879 C 271.599 271.679 271.922 269.486 271.922 267.299 C 271.922 264.039 271.482 261.166 270.602 258.679 C 269.729 256.192 268.502 254.089 266.922 252.369 C 265.349 250.649 263.489 249.316 261.342 248.369 C 259.189 247.416 256.859 246.869 254.352 246.729 L 255.432 243.989 C 257.005 244.062 258.509 243.849 259.942 243.349 C 261.375 242.842 262.639 241.962 263.732 240.709 C 264.819 239.456 265.685 237.766 266.332 235.639 C 266.979 233.506 267.302 230.829 267.302 227.609 C 267.302 225.422 267.032 223.452 266.492 221.699 C 265.959 219.946 265.252 218.469 264.372 217.269 C 263.499 216.069 262.479 215.146 261.312 214.499 C 260.145 213.859 258.955 213.539 257.742 213.539 C 256.989 213.539 256.262 213.626 255.562 213.799 C 254.869 213.979 254.262 214.286 253.742 214.719 C 253.222 215.146 252.809 215.709 252.502 216.409 C 252.195 217.109 252.042 217.976 252.042 219.009 Z M 253.122 209.129 C 263.509 209.129 271.145 210.749 276.032 213.989 C 280.919 217.229 283.362 221.949 283.362 228.149 C 283.362 229.689 283.192 231.102 282.852 232.389 C 282.512 233.676 282.072 234.849 281.532 235.909 C 280.999 236.962 280.392 237.902 279.712 238.729 C 279.032 239.549 278.332 240.266 277.612 240.879 C 275.932 242.346 274.035 243.489 271.922 244.309 L 271.922 245.119 C 275.249 245.512 278.239 246.516 280.892 248.129 C 281.999 248.809 283.089 249.659 284.162 250.679 C 285.242 251.699 286.202 252.932 287.042 254.379 C 287.882 255.832 288.562 257.516 289.082 259.429 C 289.602 261.349 289.862 263.542 289.862 266.009 C 289.862 269.769 289.182 273.152 287.822 276.159 C 286.462 279.172 284.439 281.726 281.752 283.819 C 279.065 285.912 275.715 287.512 271.702 288.619 C 267.695 289.732 263.042 290.289 257.742 290.289 C 252.835 290.289 248.842 289.986 245.762 289.379 C 242.682 288.766 240.282 287.879 238.562 286.719 C 236.849 285.552 235.679 284.146 235.052 282.499 C 234.425 280.852 234.112 278.992 234.112 276.919 L 234.112 218.159 C 234.112 216.186 232.749 215.199 230.022 215.199 C 228.055 215.199 226.059 215.496 224.032 216.089 C 222.012 216.676 220.189 217.479 218.562 218.499 C 216.929 219.526 215.592 220.746 214.552 222.159 C 213.519 223.572 213.002 225.102 213.002 226.749 C 213.002 227.896 213.152 228.809 213.452 229.489 C 213.759 230.169 214.109 230.679 214.502 231.019 C 214.895 231.359 215.299 231.572 215.712 231.659 C 216.125 231.752 216.422 231.799 216.602 231.799 C 217.495 231.799 218.229 231.646 218.802 231.339 C 219.375 231.039 219.895 230.716 220.362 230.369 C 220.822 230.029 221.259 229.709 221.672 229.409 C 222.085 229.102 222.559 228.949 223.092 228.949 C 223.525 228.949 223.982 229.049 224.462 229.249 C 224.949 229.442 225.399 229.756 225.812 230.189 C 226.219 230.616 226.565 231.179 226.852 231.879 C 227.139 232.579 227.282 233.429 227.282 234.429 C 227.282 235.862 227.005 237.099 226.452 238.139 C 225.899 239.172 225.182 240.039 224.302 240.739 C 223.429 241.439 222.429 241.959 221.302 242.299 C 220.169 242.639 219.049 242.809 217.942 242.809 C 216.222 242.809 214.672 242.512 213.292 241.919 C 211.912 241.332 210.739 240.519 209.772 239.479 C 208.805 238.439 208.072 237.222 207.572 235.829 C 207.072 234.429 206.822 232.942 206.822 231.369 C 206.822 228.396 207.379 225.772 208.492 223.499 C 209.599 221.226 211.162 219.266 213.182 217.619 C 215.209 215.972 217.635 214.602 220.462 213.509 C 223.295 212.416 226.429 211.546 229.862 210.899 C 233.302 210.259 236.982 209.802 240.902 209.529 C 244.822 209.262 248.895 209.129 253.122 209.129 Z" style="fill: rgb(76, 76, 76); white-space: pre;"/>
    <path d="M 303.566 284.551 C 303.566 291.969 297.552 297.983 290.134 297.983 C 282.716 297.983 276.702 291.969 276.702 284.551 C 276.702 277.133 282.716 271.119 290.134 271.119 C 297.552 271.119 303.566 277.133 303.566 284.551 Z" style="fill: rgb(215, 246, 218);"/>
  </g>
</svg>